<?xml version="1.0" standalone="no"?>
<!DOCTYPE svg PUBLIC "-//W3C//DTD SVG 20010904//EN"
 "http://www.w3.org/TR/2001/REC-SVG-20010904/DTD/svg10.dtd">
<svg version="1.0" xmlns="http://www.w3.org/2000/svg"
 width="540.000000pt" height="540.000000pt" viewBox="0 0 540.000000 540.000000"
 preserveAspectRatio="xMidYMid meet">
<metadata>
Created by potrace 1.14, written by Peter Selinger 2001-2017
</metadata>
<g transform="translate(0.000000,540.000000) scale(0.100000,-0.100000)"
fill="#000000" stroke="none">
<path d="M790 3903 c-164 -23 -343 -110 -462 -227 -220 -214 -305 -533 -221
-826 15 -53 76 -191 94 -214 4 -6 29 -37 54 -69 163 -206 385 -313 656 -316
l66 -1 6 -47 c14 -104 41 -187 93 -282 195 -356 621 -517 1008 -382 227 80
424 280 502 511 22 65 19 54 28 115 14 91 9 86 88 83 l71 -3 4 -35 c18 -170
122 -373 255 -497 250 -232 630 -288 930 -138 115 58 222 145 294 240 27 35
104 161 103 168 0 1 5 16 11 32 19 49 50 176 50 205 l0 27 108 6 c126 7 209
27 310 73 208 95 372 275 442 484 23 69 24 73 38 160 45 295 -104 629 -355
796 -377 250 -880 161 -1140 -203 -82 -116 -147 -283 -152 -395 -1 -16 -11
-18 -74 -18 l-74 0 -1 28 c0 15 -8 58 -16 94 -62 269 -270 500 -531 590 -110
38 -148 43 -290 42 -141 0 -230 -22 -359 -85 -221 -108 -403 -349 -441 -584
-16 -99 -7 -90 -85 -87 -57 3 -70 7 -71 20 -3 62 -36 180 -75 261 -116 247
-333 415 -604 467 -67 13 -190 16 -260 7z m282 -154 c246 -63 436 -253 499
-497 29 -115 27 -126 -23 -141 -143 -43 -302 -157 -407 -291 -76 -97 -141
-251 -159 -377 l-7 -48 -69 -3 c-166 -7 -356 69 -481 192 -144 144 -215 315
-210 512 7 263 153 490 390 604 46 23 112 47 147 55 86 19 235 16 320 -6z
m1849 -16 c247 -85 428 -306 465 -565 5 -37 3 -48 -7 -48 -30 -1 -179 -69
-239 -110 -70 -47 -159 -132 -207 -195 -70 -94 -134 -242 -148 -341 -12 -87
-8 -84 -86 -84 -38 0 -69 3 -70 8 0 4 -2 16 -4 27 -2 11 -6 37 -10 58 -3 22
-17 71 -30 110 -86 244 -291 444 -534 519 l-42 13 6 50 c16 116 85 270 160
354 102 115 234 194 379 227 102 23 263 13 367 -23z m1744 17 c123 -33 226
-92 315 -181 104 -104 168 -222 195 -355 12 -59 13 -191 3 -243 -6 -25 -11
-55 -13 -66 -5 -39 -53 -144 -91 -202 -90 -136 -219 -233 -378 -284 -66 -22
-259 -38 -268 -23 -3 5 -9 30 -12 56 -28 209 -170 433 -350 552 -61 40 -183
100 -229 111 -34 9 -35 31 -8 137 52 202 191 370 379 455 139 65 313 80 457
43z m-2788 -770 c35 -250 168 -463 371 -595 64 -41 205 -105 231 -105 27 0 -2
-145 -50 -247 -80 -172 -224 -305 -395 -363 -89 -31 -118 -35 -249 -34 -103 0
-131 4 -196 27 -215 74 -377 238 -444 450 -13 40 -25 93 -28 118 l-5 46 67 21
c139 45 289 155 387 285 85 112 155 291 163 415 1 10 19 12 73 10 67 -3 71 -4
75 -28z m1802 -37 c30 -178 116 -339 248 -464 78 -75 158 -125 268 -170 90
-36 90 -36 88 -70 -6 -70 -26 -137 -71 -229 -80 -166 -227 -290 -412 -350 -62
-20 -96 -25 -190 -25 -132 0 -162 5 -257 40 -199 75 -351 237 -412 439 -28 90
-37 166 -21 166 27 0 166 63 229 104 69 45 168 135 213 196 69 92 139 249 153
345 6 40 13 78 14 83 1 1 32 2 70 2 l69 0 11 -67z m-2105 -25 c-40 -173 -158
-334 -313 -427 -71 -43 -128 -67 -138 -58 -10 10 45 169 79 229 72 124 178
221 312 284 39 18 72 33 73 34 1 0 -5 -28 -13 -62z m1801 15 c-41 -197 -178
-373 -370 -472 -69 -36 -85 -38 -85 -13 0 22 33 121 57 172 47 100 136 205
229 268 46 31 167 92 172 87 3 -2 1 -21 -3 -42z m-1260 3 c192 -101 313 -260
365 -482 6 -28 5 -31 -11 -27 -11 3 -22 9 -25 14 -3 5 -12 9 -21 9 -25 0 -128
67 -188 121 -66 61 -117 129 -156 210 -25 52 -59 155 -59 181 0 16 30 7 95
-26z m1787 3 c139 -70 242 -172 309 -306 34 -68 68 -166 69 -195 0 -14 -23 -8
-89 24 -176 85 -306 243 -360 437 -23 85 -21 86 71 40z"/>
</g>
</svg>
